<svg xmlns="http://www.w3.org/2000/svg" version="1.1" xmlns:xlink="http://www.w3.org/1999/xlink" xmlns:svgjs="http://svgjs.dev/svgjs" width="280" height="280"><svg version="1.2" xmlns="http://www.w3.org/2000/svg" viewBox="0 0 1080 1080" width="280" height="280">
	<title>Untitled-1 [Recovered]-ai</title>
	<style>
		.s0 { fill: #231f20 } 
	</style>
	<path id="SvgjsPath1015" class="s0" d="m371.8 803.5c-83 73.5-213.5 42.4-255-60.4q-37.8-93.6-37.8-202.7 0-110.6 40.3-206.9 0.4-1 0.8-1.9c42.1-99.4 170.2-127 250.9-55.4l162.6 144.3c71.9 63.8 71.9 176.1-0.1 239.8z"></path>
	<path id="SvgjsPath1014" class="s0" d="m386.7 921.2l384.5-340.7c23.8-21.1 23.9-58.3 0.1-79.5l-383.3-341.9c-32.4-28.9-18.5-82.8 24-91.6q50.3-10.5 105-10.5 201.7 0 343.7 139.5 139.5 142.6 139.5 344.3 0 200-139.5 341.3-142 140.7-343.7 140.7-56.2 0-105.1-9.6-0.5-0.1-1-0.2c-42.8-8.6-56.8-62.9-24.2-91.8z"></path>
</svg><style>@media (prefers-color-scheme: light) { :root { filter: none; } }
@media (prefers-color-scheme: dark) { :root { filter: none; } }
</style></svg>